<?xml version="1.0" encoding="utf-8"?>
<!-- Generator: $$$/GeneralStr/196=Adobe Illustrator 27.6.0, SVG Export Plug-In . SVG Version: 6.00 Build 0)  -->
<!DOCTYPE svg PUBLIC "-//W3C//DTD SVG 1.1//EN" "http://www.w3.org/Graphics/SVG/1.1/DTD/svg11.dtd" [
	<!ENTITY ns_extend "http://ns.adobe.com/Extensibility/1.0/">
	<!ENTITY ns_ai "http://ns.adobe.com/AdobeIllustrator/10.0/">
	<!ENTITY ns_graphs "http://ns.adobe.com/Graphs/1.0/">
	<!ENTITY ns_vars "http://ns.adobe.com/Variables/1.0/">
	<!ENTITY ns_imrep "http://ns.adobe.com/ImageReplacement/1.0/">
	<!ENTITY ns_sfw "http://ns.adobe.com/SaveForWeb/1.0/">
	<!ENTITY ns_custom "http://ns.adobe.com/GenericCustomNamespace/1.0/">
	<!ENTITY ns_adobe_xpath "http://ns.adobe.com/XPath/1.0/">
]>
<svg version="1.1"
	 id="Ebene_1" xmlns:x="&ns_extend;" xmlns:i="&ns_ai;" xmlns:graph="&ns_graphs;" xmlns:sketch="http://www.bohemiancoding.com/sketch/ns"
	 xmlns="http://www.w3.org/2000/svg" xmlns:xlink="http://www.w3.org/1999/xlink" x="0px" y="0px"
	 viewBox="11.55 3.558 181.9 179.566" enable-background="new 11.55 3.558 181.9 179.566" xml:space="preserve">
<metadata>
	<sfw  xmlns="&ns_sfw;">
		<slices></slices>
		<sliceSourceBounds  bottomLeftOrigin="true" height="179.566" width="181.9" x="218.971" y="579.197"></sliceSourceBounds>
	</sfw>
</metadata>
<title>Artboard</title>
<desc>Created with Sketch.</desc>
<g>
	<path fill="none" d="M108.745,7.215C92.824,9.506,79.326,17.684,71.424,30.211c-1.815,2.881-2.798,5.576-2.959,7.968h0
		c0.161-2.391,1.144-5.085,2.959-7.964C79.326,17.685,92.824,9.506,108.745,7.215z"/>
	<path fill="none" d="M141.853,14.661c0.182-0.494,0.498-0.88,0.929-1.167C142.347,13.781,142.034,14.167,141.853,14.661z"/>
	<path fill="none" d="M118.988,36.609c0.027,0.317-0.049,0.627-0.206,0.895h0.001C118.939,37.235,119.015,36.925,118.988,36.609z"/>
	<path fill="none" d="M156.242,74.9c0.002-0.003,0.003-0.006,0.004-0.01C156.246,74.894,156.244,74.897,156.242,74.9z"/>
	<path fill="none" d="M155.954,75.389c-0.004,0.004-0.006,0.01-0.01,0.014c-0.196,0.212-0.44,0.351-0.699,0.426
		c0.258-0.075,0.503-0.213,0.699-0.422C155.948,75.402,155.949,75.395,155.954,75.389z"/>
	<path fill="none" d="M132.944,42.805c0.772,0.308,1.638-0.071,1.948-0.842c0.076-0.193,0.109-0.393,0.104-0.588
		c0.004,0.194-0.028,0.393-0.104,0.585c-0.31,0.771-1.176,1.149-1.948,0.842c-5.619-2.216-12.21-2.808-18.461-1.983
		c0.002,0.001,0.003,0.002,0.005,0.003C120.738,39.998,127.326,40.59,132.944,42.805z"/>
	<path fill="none" d="M91.649,170.393c-8.202-0.273-14.557-3.63-18.111-9.604C77.092,166.765,83.447,170.12,91.649,170.393z"/>
	<path fill="none" d="M34.623,111.406c-0.15-0.724-0.23-1.429-0.244-2.11c0.013,0.682,0.094,1.388,0.244,2.112
		c1.142,5.508,8.741,14.878,16.218,20.166c0-0.001,0-0.001,0-0.001C43.365,126.285,35.765,116.915,34.623,111.406z"/>
	<path fill="none" d="M149.712,71.795l-0.002-0.002c-2.742-2.456-5.19-4.58-7.546-6.389c0,0,0.001,0.001,0.001,0.001
		c2.355,1.809,4.803,3.933,7.543,6.388C149.709,71.793,149.71,71.794,149.712,71.795z"/>
	<path fill="none" d="M139.206,141.734c-9.605,16.143-28.998,28.354-45.893,28.673C110.208,170.089,129.601,157.878,139.206,141.734
		z"/>
	<path fill="none" d="M28.606,113.934c-1.536,4.18-1.548,8.664-0.041,12.619c1.483,3.88,4.268,6.783,7.834,8.171
		c1.991,0.774,4.075,1.027,6.211,0.773c2.014-0.246,3.951-0.957,5.715-2.031c-7.884-5.815-15.383-15.365-16.641-21.45
		c-0.219-1.058-0.309-2.09-0.297-3.088C30.234,110.401,29.283,112.087,28.606,113.934z"/>
	<path fill="none" d="M58.561,152.089c-2.833,0.729-4.458,3.092-4.571,6.652C54.107,155.18,55.728,152.817,58.561,152.089z"/>
	<path fill="none" d="M145.432,15.886c0.157,0.002,0.333,0.011,0.514,0.023C145.764,15.896,145.59,15.887,145.432,15.886z"/>
	<path fill="none" d="M144.973,15.896c0.115-0.007,0.247-0.012,0.402-0.011C145.221,15.884,145.088,15.888,144.973,15.896z"/>
	<path fill="none" d="M189.653,19.067c-1.766,3.511-6.262,8.049-13.584,10.245c-1.542,0.461-3.181,0.695-4.882,0.695
		c-4.741,0-12.585-1.866-23.012-10.748l-0.384-0.325c-1.529-1.274-2.491-2.397-2.882-3.034h-0.001
		c0.39,0.637,1.354,1.761,2.884,3.036l0.384,0.325c10.427,8.882,18.271,10.747,23.012,10.747c1.703,0,3.341-0.234,4.882-0.695
		c7.322-2.196,11.82-6.734,13.584-10.245c0.66-1.31,0.798-2.171,0.798-2.58l0,0C190.451,16.895,190.313,17.758,189.653,19.067z"/>
	<path fill="none" d="M164.416,42.578c-1.673-4.737-3.738-9.052-6.126-12.924C160.677,33.526,162.742,37.843,164.416,42.578z"/>
	<path fill="none" d="M156.766,108.215c0.642-0.504,0.751-1.436,0.25-2.083c-0.25-0.323-0.532-0.633-0.833-0.934
		c0,0.001-0.001,0.001-0.001,0.001c0.3,0.3,0.581,0.609,0.83,0.931c0.508,0.655,0.391,1.602-0.269,2.102
		c-0.163,0.127-0.343,0.215-0.531,0.265c0.189-0.05,0.372-0.138,0.535-0.265C156.754,108.225,156.76,108.219,156.766,108.215z"/>
	<path fill="#FFFFFF" d="M56.228,110.446c0.106-0.046,0.204-0.088,0.313-0.136c-0.148-0.019-0.292-0.047-0.439-0.07
		C56.144,110.309,56.186,110.377,56.228,110.446z"/>
	<path d="M106.769,97.711c-2.336-0.816-16.839-7.148-12.45-19.698c0.538-1.52,3.216-9.156-0.815-9.478
		c-1.46-0.116-3.177,0.905-4.331,1.973C84.608,74.764,77.685,99.115,106.769,97.711z"/>
	<path d="M191.532,13.632c-0.725-0.183-2.452-0.291-8.809-0.291c-2.198,0-4.709,0.01-7.377,0.028c-3.02,0.011-6.25,0.03-9.475,0.03
		c-5.525,0-13.265-0.045-18.498-0.393c-7.758-5.832-16.961-9.106-27.168-9.414c-21.763-0.666-40.881,8.633-51.21,24.858
		c-3.972,3.917-11.601,8.257-14.167,8.832c-0.299,0.066-0.58,0.167-0.838,0.297l-4.064-1.687c-2.555-2.206-2.667-5.496-2.765-8.418
		c-0.091-2.67-0.189-5.433-2.671-6.333c-0.466-0.164-0.974-0.227-1.497-0.173c-7.423,0.736-17.935,24.695-23.538,38.914
		c-9.277,23.527-8.459,30.674-7.04,34.001c0.719,1.674,1.908,2.85,3.536,3.485c1.065,0.413,2.624,0.559,4.721,0.453
		c-2.566,3.09-4.67,6.675-6.122,10.638c-6.293,17.171,0.942,35.956,16.13,41.869c4.124,1.607,8.456,2.146,12.882,1.607
		c8.63-1.054,16.566-6.22,21.834-13.823c0.312,0.137,0.607,0.282,0.926,0.414c9.705,4.027,20.921,5.07,30.724,4.921
		c0.391,1.846,1.093,3.491,2.333,4.77c1.591,1.64,3.869,2.477,6.777,2.477c6.007,0,9.897-3.13,12.226-6.631
		c0.533,0.023,1.094,0.033,1.71,0.033c3.868,0,9.321-0.484,15.604-2.398c-9.387,14.574-27.029,25.419-42.443,25.716
		c-5.53,0.115-13.019-1.227-17.145-8.159c-5.006-8.413-13.003-11.441-18.299-10.068c-4.177,1.072-6.662,4.521-6.821,9.457
		c-0.131,4.11,2.954,9.05,8.477,13.56c7.26,5.925,18.696,10.921,30.366,10.921c2.894,0,5.81-0.308,8.671-0.985
		c25.447-6.024,48.174-26.523,54.294-48.866c13.763-9.828,18.145-29.358,19.382-44.098c1.579-18.795-1.336-37.451-4.929-47.602
		c-1.27-3.586-2.767-6.931-4.435-10.051c3.345,1.116,6.161,1.479,8.372,1.479c1.993,0,3.918-0.274,5.747-0.819
		c11.702-3.511,16.596-12.159,16.514-15.796C193.416,14.954,192.696,13.926,191.532,13.632z M66.077,34.646
		c-0.676,2.306-0.754,4.247-0.55,5.805c-6.708,1.787-9.19,0.632-9.796,0.226c-0.335-0.226-0.421-0.393-0.432-0.393
		c0,0,0.042-0.042,0.182-0.077C57.731,39.708,62.153,37.373,66.077,34.646z M70.881,48.112c3.694,1.64,15.705-3.118,20.444-9.686
		c3.664,1.94,7.471,2.685,11.333,2.678c-2.673,1.217-5.116,2.718-7.157,4.51c-4.903,4.314-5.09,7.841-4.391,10.042
		c0.996,3.125,4.489,5.441,8.891,5.902c2.871,0.302,6.557-0.517,10.828-1.464c5.627-1.247,12.016-2.66,17.363-1.556
		c1.288,0.266,2.507,0.613,3.689,1.025c4.156,4.225,7.728,8.403,10.529,11.921c-0.982,0.712-4.871,2.807-9.471-4.367
		c-0.655-1.019-2.569-2.572-3.451-1.418c-0.889,1.392-0.059,3.391,0.697,4.247c1.909,2.174,5.442,3.884,8.953,4.439
		c-4.208,1.947-10.988,1.658-15.116-5.12c-1.119-1.832-1.914-4.108-3.415-5.441c-0.852-0.756-3.411-2.146-4.263,0.03
		c-0.439,1.316,0.217,3.141,0.887,4.293c3.847,6.731,11.04,9.394,19.566,8.994c-0.207,0.578-4.751,3.947-10.602,2.482
		c-1.692-0.421-4.874-1.745-5.369,0.413c-0.554,1.95,1.51,2.909,3.093,3.423c1.881,0.617,5.223-0.061,8.828-1.777
		c-2.009,2.036-9.143,13.117-19.765,9.433c-7.532-2.613-5.46-13.525-1.32-12.206c2.232,0.703,3.825,2.309,5.502-0.378
		c1.71-2.744,1.567-5.539-0.373-8.016c-4.275-5.474-12.874-4.565-16.205,2.175c-5.553,11.232,5.295,33.742,27.959,18.328
		c-2.418,2.095-9.412,8.66-14.534,13.686c-3.036-3.574-6.766-6.409-10.717-6.409c-1.618,0-3.16,0.479-4.58,1.425
		c-0.549,0.366-1.031,0.759-1.479,1.165c-5.409-0.474-11.551-2.314-12.798-8.533c-0.64-3.173-4.261-2.968-5.456,0.655
		c-3.347,10.159,6.557,12.467,15.874,10.947c-0.954,1.862-1.321,3.941-1.339,6.122c-5.857,2.923-12.083,6.373-15.33,8.791
		c-3.811,2.85-6.284,8.239-5.071,11.337c1.348,3.451,4.802,5.014,7.598,3.175c3.458-4.007-5.637-6.303,7.399-16.089
		c0.747-0.56,2.902-2.19,5.577-4.143c0.077,0.669,0.168,1.34,0.283,2.014c-3.09,2.93-5.524,6.443-5.878,10.605
		c-0.335,3.987,3.639,9.034,8.547,9.932c-0.042,1.374-0.064,2.746-0.013,4.075c-9.328,0.113-19.895-0.898-28.968-4.662
		c-0.737-0.306-1.449-0.625-2.142-0.952c0.512-2.188,0.087-4.684-0.418-6.432c1.03,0.408,2.29,0.326,3.701-0.48
		c2.67-1.522-3.294-11.543,23.027-20.595c-4.838-0.542-9.499-0.493-13.94-1.545c-21.232-5.039-14.598-21.38-10.509-16.364
		c1.755,2.154-1.47,5.925,1.694,6.888c3.115,0.949,6.061-0.446,7.986-3.751c4.389-7.526,0.422-15.767-8.005-16.734
		c-6.049-0.697-9.921,3.897-11.163,9.808c-1.806,8.574,0.031,16.131,8.235,19.941c2.087,0.978,2.073,1.769,0.007,1.742
		c-5.887-0.461-11.893-7.279-11.234-14.965c0.14-1.667,0.997-4.522-0.241-5.446c-2.961-2.213-10.154,7.643,2.272,18.765
		c1.326,1.194,7.813,4.146,3.864,4.145c-2.973-0.188-4.926-0.693-6.237-1.328c-1.849-2.802-3.66-5.134-5.155-6.284
		c-2.517-1.937-5.288-2.96-8.014-2.96c-0.629,0-1.244,0.069-1.847,0.179l-0.706-0.293c-0.479-2.197-1.36-10.346,5.635-28.184
		c7.101-18.132,13.042-24.12,15.263-25.854c0.347-0.01,0.709-0.029,1.091-0.061l3.632,1.523l0.835-0.848
		c0.017-0.017,0.469-0.463,1.319-1.142C67.735,46.065,69.455,47.479,70.881,48.112z M96.31,125.834
		c-1.997-0.388-3.44-2.507-2.882-4.496c0.219-0.785,0.678-1.647,1.286-2.545c0.181,0.791,0.366,1.579,0.552,2.354
		C95.656,122.785,96.031,124.349,96.31,125.834z M122.889,107.633c-0.977,0.97-1.876,2.029-2.699,3.166
		c-0.142-1.292,0.233-3.209,1.487-6.146C121.574,105.366,122.049,106.507,122.889,107.633z M138.431,83.006
		c-1.184,4.153-2.221,7.111-2.838,10.151c-0.451,2.244-0.66,4.66-0.352,6.847c0.034,0.248,0.113,0.539,0.241,0.83
		c-0.73,0.159-1.443,0.354-2.146,0.57c-0.261-0.157-0.552-0.242-0.874-0.216c-0.872,0.27-1.36,0.698-1.688,1.151
		c-0.986,0.42-1.939,0.9-2.855,1.435C124.406,100.949,132.422,88.313,138.431,83.006z M139.471,89.031
		c-0.003-4.611,1.577-11.736,1.532-6.86c0.485,2.64,0.328,4.763,0.899,7.164c0.316,1.269,0.994,3.487,2.824,3.132
		c1.619-0.847,1.191-3.292,0.487-4.309c-4.999-7.199-2.335-12.112-2.488-8.612c1.335,8.318,6.489,6.428,4.809,4.658
		c-1.194-1.48-4.477-4.013-3.441-8.117c0.335-0.723,0.678-1.043,0.989-1.155c2.589,3.44,4.065,5.701,4.119,5.783l0.248,0.386
		c0.366,1.693,1,7.407-2.665,19.607c-2.216-0.435-4.59-0.604-6.994-0.461c0.101-0.441,0.147-0.877,0.155-1.22
		C140.01,95.677,139.461,92.378,139.471,89.031z M153.108,102.943l-2.625-1.216c-0.072-0.027-0.149-0.048-0.223-0.074
		c2.872-9.568,3.261-15.502,3.031-18.887l2.391,0.996C156.046,85.53,156.602,91.161,153.108,102.943z M120.425,100.632
		c-1.515,2.453-2.856,4.973-3.805,7.544c-0.244-0.366-0.494-0.728-0.753-1.09 M43.123,148.277
		c-3.841,0.472-7.605,0.007-11.179-1.389c-13.338-5.193-19.636-21.849-14.035-37.126c1.813-4.943,4.737-9.238,8.349-12.564
		l8.77,3.64c-0.327,0.271-0.634,0.566-0.923,0.881c-3.927,2.376-7.132,6.216-8.851,10.906c-1.848,5.032-1.855,10.447-0.022,15.249
		c1.86,4.869,5.378,8.522,9.915,10.285c2.529,0.983,5.19,1.321,7.906,0.987c3.081-0.376,6.017-1.61,8.566-3.495
		c2.012,1.185,3.997,2.063,5.855,2.51c0.906,0.213,1.759,0.323,2.531,0.323c0.196,0,0.371-0.02,0.552-0.033
		C55.968,143.855,49.778,147.468,43.123,148.277z M17.219,93.927c-0.513-0.196-1.094-0.533-1.513-1.51
		c-1.234-2.892-1.009-10.642,7.077-31.15c14.03-35.583,20.506-36.634,20.442-36.722c0.263,0.352,0.32,1.969,0.357,3.044
		c0.107,3.219,0.275,8.089,4.324,11.344l0.703,0.295c-3.266,3.008-8.843,10.085-15.241,26.427
		c-5.853,14.933-6.511,23.564-6.166,27.971l-0.663-0.275l-0.516,0.1c-0.02,0.001-1.892,0.372-4.009,0.582
		C18.768,94.356,17.576,94.068,17.219,93.927z M66.253,115.156c-2.467,1.648-3.678,4.04-3.946,6.312
		c-1.092-2.165-2.449-4.742-3.917-7.337c5.52-1.369,11.049-2.63,16.575-3.932c2.482-0.382,2.877-0.134,0.165,1.157
		C72.159,112.599,68.97,113.337,66.253,115.156z M62.177,134.535c-0.256,0.382-0.737,0.881-1.941,0.94
		c0.001,0.001,0.001,0.001,0.002,0.001c-0.078,0.004-0.15,0.012-0.234,0.012c-0.534,0-1.151-0.082-1.832-0.248
		c-1.311-0.314-2.714-0.898-4.158-1.681c0,0,0.001-0.001,0.001-0.001c-1.042-0.566-2.105-1.233-3.172-1.987c0,0-0.001,0-0.001,0.001
		c-7.477-5.288-15.077-14.658-16.218-20.166c-0.15-0.724-0.23-1.43-0.244-2.112c-0.039-2.042,0.529-3.861,1.664-5.256
		c1.291-1.59,3.197-2.47,5.347-2.47c2.063,0,4.197,0.809,6.184,2.337c3.946,3.032,11.745,17.777,14.205,23.4
		c0.617,1.4,1.094,3.626,0.933,5.395v-0.001C62.646,133.414,62.488,134.06,62.177,134.535z M31.685,112.016
		c1.257,6.085,8.757,15.635,16.641,21.45c-1.764,1.074-3.701,1.785-5.715,2.031c-2.136,0.255-4.22,0.001-6.211-0.773
		c-3.567-1.389-6.351-4.292-7.834-8.171c-1.507-3.954-1.495-8.438,0.041-12.619c0.677-1.847,1.628-3.533,2.783-5.006
		C31.376,109.926,31.466,110.958,31.685,112.016z M31.063,95.229c-0.482-2.201-1.365-10.351,5.627-28.192
		c7.636-19.489,13.931-24.95,15.701-26.174c0.134,0.615,0.454,1.21,0.954,1.715c0.375,0.378,0.951,0.797,1.781,1.142
		c-3.344,3.571-8.343,10.777-13.982,25.171c-5.852,14.928-6.511,23.556-6.165,27.962L31.063,95.229z M115.325,142.59
		c-0.201,0.3-0.407,0.59-0.642,0.881c-0.023,0.031-0.045,0.058-0.075,0.093c-0.206,0.25-0.423,0.503-0.659,0.748
		c-0.067,0.075-0.136,0.144-0.205,0.212c-0.213,0.204-0.431,0.405-0.66,0.598c-0.08,0.068-0.16,0.138-0.239,0.202
		c-0.279,0.222-0.578,0.436-0.886,0.634c-0.036,0.025-0.069,0.053-0.105,0.069c-0.352,0.218-0.73,0.418-1.125,0.602
		c-0.086,0.04-0.182,0.071-0.277,0.109c-0.303,0.133-0.622,0.245-0.96,0.351c-0.138,0.038-0.281,0.08-0.423,0.118
		c-0.321,0.08-0.652,0.149-1,0.206c-0.144,0.023-0.288,0.052-0.435,0.069c-0.498,0.065-1.007,0.104-1.55,0.104
		c-1.883,0-3.209-0.427-4.062-1.305c-1.945-2.014-1.791-6.683-1.644-11.197c0.1-2.908,0.203-5.911-0.215-8.605
		c-0.314-2.065-0.847-4.288-1.362-6.428c-2.071-8.663-3.068-14.583,1.849-17.856c0.787-0.527,1.594-0.785,2.454-0.785
		c5.612,0,12.958,11.056,14.502,16.616c0.183,0.631,0.35,1.243,0.498,1.837c0.016,0.062,0.027,0.126,0.047,0.195
		c0.14,0.564,0.269,1.127,0.387,1.669c1.269,6.109,0.639,10.26-0.916,15.192c-0.029,0.085-0.053,0.176-0.063,0.27
		c-0.015,0.091-0.126,0.628-0.36,1.395c-0.058,0.179-0.12,0.369-0.188,0.567c0,0.011-0.013,0.03-0.018,0.046
		c-0.099,0.274-0.213,0.576-0.345,0.892c-0.062,0.147-0.124,0.296-0.193,0.451c-0.051,0.111-0.111,0.224-0.16,0.334
		c-0.085,0.183-0.18,0.357-0.271,0.538c-0.055,0.109-0.115,0.211-0.171,0.314c-0.127,0.216-0.258,0.439-0.396,0.658
		C115.411,142.446,115.371,142.515,115.325,142.59z M97.811,179.223c-13.396,3.172-27.959-2.407-36.443-9.339
		c-4.721-3.855-7.483-8.019-7.378-11.144c0.114-3.56,1.738-5.923,4.571-6.652c4.226-1.084,10.724,1.555,14.977,8.701
		c3.554,5.974,9.909,9.33,18.111,9.604c0.547,0.019,1.102,0.023,1.665,0.014c16.895-0.319,36.288-12.529,45.893-28.673
		c0.31-0.521,0.609-1.045,0.898-1.574c2.821-1.116,5.761-2.544,8.758-4.337C141.776,155.849,120.973,173.742,97.811,179.223z
		 M164.416,42.578c1.194,3.372,2.252,7.458,3.098,12.014c4.567,24.602,2.944,62.911-16.866,76.543
		c-12.395,8.535-24.05,9.981-30.651,9.965c0.55-1.3,0.924-2.543,1.113-3.588c0.042-0.131,0.079-0.26,0.119-0.391
		c-0.002,0.001-0.004,0.001-0.006,0.001c1.523-4.954,2.146-9.426,0.922-15.65c0.001-0.001,0.002-0.001,0.003-0.001
		c-0.265-1.345-0.61-2.768-1.058-4.3c-0.116-0.4-0.269-0.87-0.456-1.364c0.452-0.898,0.944-1.712,1.454-2.487
		c-0.001-0.001-0.002-0.001-0.003-0.001c0.9-1.369,1.873-2.568,2.901-3.594c0.001,0,0.001,0.001,0.002,0.001
		c3.093-3.084,6.613-4.727,9.669-5.591c0,0,0-0.001,0-0.002c1.594-0.45,3.061-0.692,4.272-0.814
		c0.815-0.083,1.632-0.124,2.442-0.128c5.666-0.022,11.006,1.84,13.271,4.772c0.379,0.493,1.005,0.681,1.568,0.532
		c0.188-0.05,0.369-0.138,0.531-0.265c0.66-0.499,0.777-1.446,0.269-2.102c-0.249-0.322-0.53-0.63-0.83-0.93
		c0,0,0.001-0.001,0.001-0.002c5.212-16.829,2.926-22.852,2.597-23.576l-0.296-0.656l-6.614-2.753
		c-1.055-1.589-4.504-6.636-9.706-12.807c0,0-0.001-0.001-0.001-0.001c2.356,1.809,4.805,3.934,7.546,6.389l0.002,0.002l4.167,3.747
		c0.274,0.124,0.562,0.234,0.855,0.337c0.033,0.003,0.064,0.018,0.097,0.018c0.14,0,0.278-0.027,0.413-0.067
		c0.259-0.075,0.503-0.214,0.699-0.426c0.004-0.004,0.006-0.01,0.01-0.014c0.129-0.149,0.227-0.314,0.289-0.489
		c0.002-0.003,0.003-0.006,0.004-0.01c0.19-0.552,0.048-1.187-0.408-1.604l-1.189-1.073c-9.726-8.796-16.158-14.606-25.847-16.61
		c-5.983-1.238-12.701,0.253-18.624,1.569c-3.847,0.85-7.475,1.656-9.862,1.408c-3.172-0.337-5.723-1.876-6.346-3.836
		c-0.077-0.239-0.124-0.486-0.143-0.741c-0.131-1.777,1.14-3.926,3.661-6.14c3.055-2.687,7.071-4.681,11.491-5.922
		c0.002,0,0.003,0.001,0.004,0.002c1.781-0.5,3.626-0.875,5.505-1.123c-0.001-0.001-0.003-0.002-0.005-0.003
		c6.252-0.824,12.842-0.233,18.461,1.983c0.772,0.308,1.638-0.071,1.948-0.842c0.076-0.192,0.108-0.391,0.104-0.585
		c-0.016-0.584-0.374-1.133-0.951-1.359c-4.671-1.843-9.976-2.646-15.264-2.508c0-0.001,0.001-0.002,0.001-0.003h-0.001
		c0.157-0.268,0.233-0.578,0.206-0.895c-0.009-0.105-0.03-0.212-0.063-0.317c-0.253-0.793-1.095-1.224-1.887-0.975
		c-8,2.557-17.22,4.861-25.428-0.184c-0.348-0.215-0.771-0.274-1.167-0.169c-0.395,0.101-0.732,0.367-0.933,0.725
		c-3.496,6.35-15.522,10.521-17.409,9.679c-1.118-0.496-2.657-1.855-3.334-4.066c-0.291-0.963-0.377-2.013-0.302-3.123h0
		c0.161-2.392,1.144-5.087,2.959-7.968c7.902-12.526,21.4-20.705,37.321-22.996c3.674-0.529,7.477-0.744,11.37-0.626
		c8.357,0.253,16.004,2.641,22.666,6.905c-0.432,0.286-0.747,0.672-0.929,1.167c-0.22,0.617-0.896,2.483,4.016,6.575l0.363,0.307
		c4.444,3.786,8.477,6.365,12.058,8.11C160.677,33.526,162.742,37.841,164.416,42.578z M189.653,19.068
		c-1.764,3.511-6.262,8.049-13.584,10.245c-1.541,0.461-3.179,0.695-4.882,0.695c-4.741,0-12.585-1.865-23.012-10.747l-0.384-0.325
		c-1.53-1.275-2.494-2.399-2.884-3.036h0.001c0.02-0.002,0.045-0.002,0.066-0.004c0.114-0.008,0.248-0.012,0.402-0.011
		c0.019,0,0.037,0,0.057,0.001c0.158,0.002,0.332,0.01,0.514,0.023c0.034,0.002,0.065,0.003,0.099,0.006
		c5.305,0.43,13.859,0.48,19.83,0.48c3.232,0,6.465-0.016,9.492-0.026c2.662-0.019,5.162-0.03,7.359-0.03
		c4.138,0,6.724,0.049,7.726,0.148l0,0C190.451,16.897,190.313,17.758,189.653,19.068z"/>
	<path d="M154.735,75.879L154.735,75.879c-0.307-0.021-0.606-0.129-0.855-0.337C154.129,75.75,154.427,75.857,154.735,75.879z"/>
	<path fill="#FFFFFF" d="M154.735,75.879c-0.294-0.103-0.581-0.213-0.855-0.337C154.128,75.75,154.428,75.857,154.735,75.879z"/>
	<path d="M89.157,32.08c2.669,0.337,2.875,0.512,5.335-1.329c2.669-2.004,3.001-5.331,0-5.003c-2.996,0.335-5.002,1.001-6.333,2.002
		C85.772,29.538,86.494,31.75,89.157,32.08z"/>
	<path d="M78.158,32.08c1.656,0,2.998-1.343,2.998-2.999c0-1.656-1.341-2.998-2.998-2.998c-1.656,0-3.004,1.341-3.004,2.998
		C75.154,30.737,76.502,32.08,78.158,32.08z"/>
	<path d="M112.823,23.751c1.663,0,3.006-1.341,3.006-2.999c0-1.656-1.343-3-3.006-3c-1.656,0-2.998,1.343-2.998,3
		C109.825,22.41,111.167,23.751,112.823,23.751z"/>
</g>
</svg>
