<?xml version="1.0" encoding="utf-8"?>
<!-- Generator: $$$/GeneralStr/196=Adobe Illustrator 27.6.0, SVG Export Plug-In . SVG Version: 6.00 Build 0)  -->
<!DOCTYPE svg PUBLIC "-//W3C//DTD SVG 1.1//EN" "http://www.w3.org/Graphics/SVG/1.1/DTD/svg11.dtd" [
	<!ENTITY ns_extend "http://ns.adobe.com/Extensibility/1.0/">
	<!ENTITY ns_ai "http://ns.adobe.com/AdobeIllustrator/10.0/">
	<!ENTITY ns_graphs "http://ns.adobe.com/Graphs/1.0/">
	<!ENTITY ns_vars "http://ns.adobe.com/Variables/1.0/">
	<!ENTITY ns_imrep "http://ns.adobe.com/ImageReplacement/1.0/">
	<!ENTITY ns_sfw "http://ns.adobe.com/SaveForWeb/1.0/">
	<!ENTITY ns_custom "http://ns.adobe.com/GenericCustomNamespace/1.0/">
	<!ENTITY ns_adobe_xpath "http://ns.adobe.com/XPath/1.0/">
]>
<svg version="1.1"
	 id="Ebene_1" xmlns:x="&ns_extend;" xmlns:i="&ns_ai;" xmlns:graph="&ns_graphs;" xmlns:sketch="http://www.bohemiancoding.com/sketch/ns"
	 xmlns="http://www.w3.org/2000/svg" xmlns:xlink="http://www.w3.org/1999/xlink" x="0px" y="0px"
	 viewBox="11.55 3.558 181.9 179.566" enable-background="new 11.55 3.558 181.9 179.566" xml:space="preserve">
<metadata>
	<sfw  xmlns="&ns_sfw;">
		<slices></slices>
		<sliceSourceBounds  bottomLeftOrigin="true" height="179.566" width="181.9" x="218.971" y="579.197"></sliceSourceBounds>
	</sfw>
</metadata>
<title>Artboard</title>
<desc>Created with Sketch.</desc>
<g id="レイヤー-1_4_" sketch:type="MSLayerGroup">
	<path id="Fill-2_4_" sketch:type="MSShapeGroup" fill="#005683" d="M57.146,118.058c-1.292-2.388-2.708-4.842-4.087-7.048
		C54.246,113.469,55.613,115.824,57.146,118.058"/>
	<path id="Fill-3_3_" sketch:type="MSShapeGroup" fill="#FFD200" d="M149.708,71.793c-8.026-7.191-13.562-11.609-21.517-13.254
		c-5.347-1.104-11.737,0.309-17.363,1.556c-4.27,0.947-7.955,1.766-10.828,1.464c-4.402-0.461-7.896-2.777-8.891-5.902
		c-0.699-2.201-0.512-5.728,4.392-10.042c2.04-1.794,4.484-3.294,7.156-4.51c-3.862,0.007-7.668-0.737-11.333-2.678
		c-4.737,6.568-16.748,11.328-20.444,9.686c-0.821-0.367-1.741-0.991-2.581-1.864c-0.082,0.059-0.154,0.131-0.236,0.192
		c0.973,0.914,1.682,2.188,1.99,3.688c0.628,3.031-0.434,6.272-2.839,8.671c-2.091,2.091-4.721,3.284-7.225,3.284
		c-1.743,0-3.24-0.604-4.356-1.667c-4.941,8.049-7.813,17.499-7.813,27.639c0,4.723,0.634,9.288,1.789,13.647
		c4.962,4.086,13.137,20.327,14.921,24.399c0.101,0.227,0.21,0.507,0.321,0.832c8.505,7.864,19.585,12.979,31.844,13.925
		c-0.154-2.024-0.082-4.182-0.01-6.316c0.082-2.613,0.176-5.314-0.166-7.532c-0.28-1.826-0.755-3.786-1.249-5.857
		c-1.848-7.737-3.95-16.502,3.45-21.43c1.42-0.947,2.961-1.425,4.58-1.425c6.65,0,12.69,8.011,15.81,14.107
		c4.248-6.872,11.223-11.23,19.527-12.072c4.203-0.421,8.393,0.121,11.85,1.397c1.034,0.935,2.234,1.74,3.279,1.86
		c3.696,0.43,2.377-11.565,2.377-15.185C156.141,84.925,157.813,75.241,149.708,71.793"/>
	<path id="Fill-6_7_" sketch:type="MSShapeGroup" fill="#FFD200" d="M117.766,120.226c-0.02-0.066-0.03-0.128-0.045-0.187
		c-0.142-0.571-0.302-1.16-0.479-1.766c-1.485-5.347-8.549-15.978-13.945-15.978c-0.828,0-1.604,0.248-2.36,0.754
		c-4.729,3.148-3.77,8.841-1.778,17.171c0.496,2.058,1.008,4.194,1.31,6.18c0.402,2.59,0.302,5.478,0.207,8.274
		c-0.142,4.341-0.29,8.83,1.58,10.767c0.821,0.844,2.096,1.254,3.906,1.254c0.522,0,1.013-0.037,1.492-0.1
		c0.142-0.016,0.28-0.044,0.418-0.066c0.335-0.054,0.653-0.121,0.962-0.197c0.136-0.037,0.274-0.077,0.407-0.114
		c0.325-0.101,0.632-0.209,0.924-0.337c0.091-0.037,0.184-0.066,0.266-0.105c0.379-0.176,0.743-0.369,1.081-0.578
		c0.035-0.016,0.066-0.042,0.101-0.066c0.297-0.19,0.583-0.396,0.853-0.609c0.077-0.062,0.154-0.128,0.23-0.194
		c0.22-0.185,0.43-0.379,0.634-0.575c0.066-0.066,0.133-0.132,0.197-0.204c0.227-0.236,0.435-0.479,0.634-0.72
		c0.028-0.033,0.049-0.06,0.072-0.089c0.226-0.28,0.423-0.559,0.617-0.847c0.044-0.072,0.082-0.138,0.126-0.203
		c0.132-0.21,0.258-0.425,0.38-0.632c0.054-0.1,0.112-0.198,0.165-0.302c0.087-0.173,0.178-0.341,0.26-0.517
		c0.047-0.106,0.104-0.215,0.154-0.321c0.066-0.149,0.125-0.292,0.185-0.434c0.128-0.304,0.237-0.594,0.332-0.857
		c0.005-0.016,0.018-0.033,0.018-0.044c0.066-0.19,0.126-0.374,0.182-0.545c0.226-0.737,0.332-1.254,0.346-1.341
		c0.01-0.089,0.033-0.177,0.061-0.259c1.495-4.742,2.101-8.734,0.88-14.608C118.025,121.31,117.901,120.769,117.766,120.226"/>
	<path id="Fill-7_4_" sketch:type="MSShapeGroup" fill="#FF8800" d="M165.874,16.394c-5.971,0-14.524-0.049-19.83-0.481
		c-0.461-0.037-0.875-0.037-1.139-0.016c0.391,0.638,1.354,1.761,2.884,3.036l0.384,0.325c10.427,8.882,18.271,10.748,23.012,10.748
		l0,0c1.701,0,3.34-0.234,4.882-0.695c7.322-2.196,11.818-6.734,13.584-10.245c0.66-1.31,0.798-2.173,0.798-2.58
		c-1.004-0.1-3.588-0.148-7.726-0.148c-2.197,0-4.697,0.01-7.359,0.029C172.339,16.38,169.102,16.394,165.874,16.394"/>
	<path id="Fill-8_4_" sketch:type="MSShapeGroup" fill="#FFD200" d="M36.043,104.038c-1.513,1.86-2.019,4.474-1.42,7.368
		c1.53,7.382,14.657,21.704,23.548,23.833c0.681,0.166,1.298,0.248,1.832,0.248c1.384,0,1.901-0.545,2.173-0.952
		c1.081-1.656,0.468-5.265-0.399-7.23c-2.459-5.623-10.259-20.367-14.205-23.4c-1.986-1.526-4.121-2.337-6.184-2.337
		C39.24,101.57,37.334,102.45,36.043,104.038"/>
	<path id="Fill-9_3_" sketch:type="MSShapeGroup" fill="#FFD200" d="M56.629,56.128c0.463,2.444,2.085,2.956,3.361,2.956
		c1.689,0,3.595-0.898,5.106-2.412c1.684-1.682,2.438-3.906,2.019-5.946c-0.258-1.265-0.952-2.232-1.848-2.59
		c-0.148-0.061-0.351-0.094-0.589-0.094c-1.61,0-4.561,1.452-6.514,3.803C57.453,52.7,56.306,54.4,56.629,56.128"/>
	<path id="Fill-10_4_" sketch:type="MSShapeGroup" fill="#FF8800" d="M148.863,135.823c-2.999,1.793-5.938,3.221-8.758,4.337
		c-9.249,16.917-29.351,29.919-46.791,30.247c-9.006,0.148-15.985-3.244-19.775-9.618c-4.253-7.146-10.751-9.787-14.977-8.701
		c-2.833,0.729-4.454,3.092-4.571,6.652c-0.104,3.125,2.657,7.289,7.378,11.144c8.484,6.932,23.047,12.511,36.443,9.339
		C120.973,173.742,141.776,155.849,148.863,135.823"/>
	<path id="Fill-11_4_" sketch:type="MSShapeGroup" fill="#FF8800" d="M55.482,40.206c-0.138,0.035-0.182,0.077-0.182,0.077
		c0.011,0,0.098,0.167,0.432,0.393c0.606,0.407,3.088,1.562,9.796-0.226c-0.204-1.558-0.125-3.499,0.55-5.805
		C62.153,37.373,57.731,39.708,55.482,40.206"/>
	<path id="Fill-12_3_" sketch:type="MSShapeGroup" d="M59.99,62.081L59.99,62.081c-3.267,0-5.682-2.068-6.308-5.404
		c-0.409-2.173,0.363-4.566,2.173-6.748c2.354-2.828,6.063-4.886,8.825-4.886c0.623,0,1.193,0.106,1.7,0.302
		c1.837,0.737,3.214,2.526,3.677,4.783c0.627,3.031-0.435,6.272-2.84,8.671C65.124,60.888,62.495,62.081,59.99,62.081L59.99,62.081z
		 M64.678,48.042c-1.61,0-4.561,1.452-6.514,3.803c-0.711,0.856-1.86,2.558-1.535,4.285c0.463,2.444,2.085,2.956,3.361,2.956
		c1.689,0,3.595-0.898,5.106-2.413c1.684-1.682,2.438-3.906,2.019-5.946c-0.258-1.265-0.952-2.233-1.848-2.59
		C65.118,48.073,64.916,48.042,64.678,48.042L64.678,48.042z"/>
	<path id="Fill-18_4_" sketch:type="MSShapeGroup" d="M60.004,138.485L60.004,138.485c-0.772,0-1.625-0.11-2.531-0.323
		c-10.146-2.439-24.034-17.662-25.788-26.146c-0.786-3.796-0.066-7.3,2.03-9.871c1.85-2.272,4.65-3.577,7.675-3.577
		c2.727,0,5.497,1.023,8.014,2.96c4.938,3.796,13.315,20.446,15.125,24.57c0.753,1.722,2.247,6.879,0.154,10.081
		C63.997,137.231,62.622,138.485,60.004,138.485L60.004,138.485z M41.39,101.57c-2.15,0-4.056,0.88-5.347,2.47
		c-1.513,1.86-2.019,4.473-1.42,7.368c1.53,7.382,14.657,21.704,23.548,23.833c0.681,0.166,1.298,0.248,1.832,0.248
		c1.384,0,1.901-0.545,2.173-0.952c1.081-1.656,0.468-5.265-0.399-7.23c-2.459-5.623-10.259-20.368-14.205-23.4
		C45.588,102.379,43.453,101.57,41.39,101.57L41.39,101.57z"/>
	<path id="Fill-13_7_" sketch:type="MSShapeGroup" fill="#FFD200" d="M164.416,42.578c-1.673-4.735-3.738-9.052-6.126-12.924
		c-3.581-1.745-7.614-4.325-12.058-8.11l-0.363-0.307c-4.912-4.093-4.236-5.958-4.016-6.575c0.182-0.494,0.494-0.88,0.929-1.167
		c-6.662-4.264-14.309-6.652-22.666-6.905C99.352,5.962,81.15,14.794,71.424,30.214c-2.657,4.215-3.575,8.049-2.657,11.087
		c0.678,2.211,2.217,3.57,3.334,4.066c1.887,0.842,13.913-3.329,17.409-9.679c0.201-0.358,0.538-0.624,0.933-0.725
		c0.396-0.104,0.819-0.045,1.167,0.169c8.208,5.045,17.428,2.741,25.428,0.184c0.792-0.25,1.633,0.182,1.887,0.975
		c0.132,0.423,0.066,0.856-0.144,1.216c5.288-0.138,10.593,0.666,15.264,2.508c0.77,0.302,1.151,1.177,0.847,1.948
		c-0.31,0.771-1.176,1.149-1.948,0.842c-11.499-4.535-27.075-2.311-35.456,5.062c-2.879,2.529-4.129,4.973-3.518,6.877
		c0.624,1.96,3.174,3.499,6.346,3.836c2.388,0.248,6.016-0.557,9.862-1.408c5.923-1.316,12.641-2.807,18.624-1.569
		c9.689,2.003,16.121,7.813,25.847,16.61l1.189,1.073c0.609,0.557,0.658,1.503,0.104,2.121c-0.298,0.32-0.707,0.489-1.112,0.489
		c-0.341,0-0.676-0.124-0.952-0.355c0.957,4.081,1.45,7.917,1.45,12.16c0,5.083-0.706,10.463-2.085,15.305
		c1.544,0.875,2.844,1.925,3.773,3.125c0.506,0.655,0.391,1.601-0.269,2.101c-0.648,0.507-1.597,0.392-2.103-0.267
		c-2.589-3.35-9.193-5.305-15.71-4.644c-4.743,0.48-13.398,2.749-18.299,12.488c0.187,0.494,0.34,0.964,0.456,1.364
		c2.571,8.809,1.967,14.152,0.019,20.341c-0.188,1.045-0.562,2.289-1.113,3.588c6.601,0.016,18.256-1.43,30.651-9.965
		C174.126,114.978,172.058,64.158,164.416,42.578"/>
	<path id="Fill-15_7_" sketch:type="MSShapeGroup" d="M88.16,27.75c-2.388,1.789-1.666,4,0.998,4.33
		c2.669,0.337,2.875,0.512,5.335-1.329c2.669-2.004,3.001-5.331,0-5.003C91.496,26.083,89.491,26.749,88.16,27.75"/>
	<path id="Fill-16_7_" sketch:type="MSShapeGroup" d="M81.156,29.081c0,1.656-1.341,2.999-2.998,2.999
		c-1.656,0-3.004-1.343-3.004-2.999c0-1.656,1.349-2.998,3.004-2.998C79.814,26.083,81.156,27.425,81.156,29.081"/>
	<path id="Fill-17_7_" sketch:type="MSShapeGroup" d="M115.829,20.752c0,1.658-1.343,2.999-3.006,2.999
		c-1.656,0-2.998-1.341-2.998-2.999c0-1.656,1.341-3,2.998-3C114.486,17.753,115.829,19.096,115.829,20.752"/>
</g>
<g>
	<path fill="#CCD8EA" d="M16.23,109.111c-5.955,16.249,0.794,33.933,15.087,39.496c14.289,5.567,30.699-3.097,36.658-19.345
		c5.957-16.245-0.796-33.922-15.087-39.489C38.602,84.213,22.188,92.868,16.23,109.111z M57.275,125.097
		c-3.493,9.532-13.118,14.606-21.499,11.347c-8.383-3.261-12.343-13.635-8.848-23.164c3.496-9.53,13.12-14.605,21.501-11.343
		C56.812,105.205,60.769,115.569,57.275,125.097z"/>
	<path d="M43.565,151.933L43.565,151.933c-4.426,0.54-8.758,0-12.882-1.607c-15.188-5.913-22.423-24.698-16.13-41.869
		c4.388-11.973,14.629-20.607,26.086-22.008c4.423-0.538,8.755,0.002,12.881,1.606c15.19,5.92,22.429,24.701,16.13,41.86
		C65.26,141.893,55.022,150.534,43.565,151.933z M41.077,90.097c-10.147,1.238-19.242,8.959-23.169,19.665
		c-5.601,15.277,0.697,31.933,14.035,37.126c3.574,1.396,7.338,1.86,11.179,1.389c10.147-1.235,19.241-8.958,23.167-19.669
		c5.604-15.269-0.693-31.921-14.037-37.121C48.681,90.099,44.922,89.629,41.077,90.097z M43.052,139.147
		c-2.716,0.334-5.377-0.003-7.906-0.987c-4.536-1.763-8.054-5.417-9.915-10.285c-1.833-4.802-1.825-10.217,0.022-15.249
		c2.67-7.284,8.912-12.541,15.901-13.396c2.712-0.332,5.373,0.002,7.904,0.988c9.291,3.621,13.733,15.077,9.894,25.536
		C56.283,133.037,50.04,138.295,43.052,139.147z M41.591,102.879c-5.682,0.699-10.778,5.034-12.985,11.055
		c-1.536,4.18-1.548,8.664-0.041,12.619c1.483,3.88,4.268,6.783,7.834,8.171c1.991,0.774,4.075,1.027,6.211,0.773
		c5.684-0.694,10.778-5.031,12.987-11.049c3.139-8.569-0.36-17.89-7.799-20.795C45.811,102.882,43.726,102.618,41.591,102.879z"/>
</g>
<g>
	<g>
		<path fill="#CCD8EA" d="M157.157,82.394L150.69,79.7c0,0-19.915-30.899-45.096-41.356c-25.776-10.7-41.566,5.381-41.566,5.381
			l-15.023-6.232C43.123,32.75,47.03,24.009,43.9,22.877c-3.027-1.101-10.923,7.616-22.783,37.695
			c-11.398,28.916-7.742,33.826-4.535,35.075c2.635,1.021,9.779-0.388,9.779-0.388l15.017,6.232c0,0-0.25,24.59,25.61,35.325
			c25.182,10.454,61.058,0.65,61.058,0.65l6.468,2.69c0,0,7.606-3.019,16.481-25.665C160.601,89.994,157.157,82.394,157.157,82.394z
			"/>
	</g>
	<g>
		<path fill="#001FD4" d="M35.745,100.599c-0.384-0.856-3.511-8.981,5.398-31.707C50.755,44.357,58.515,40.689,59.37,40.35
			l1.303,3.434c-0.037,0.016-7.186,3.469-16.201,26.486c-8.332,21.247-5.49,28.751-5.461,28.82L35.745,100.599z"/>
	</g>
	<g>
		<path fill="#001FD4" d="M27.97,97.371c-0.387-0.852-3.511-8.984,5.397-31.714c9.605-24.533,17.367-28.2,18.224-28.536l1.298,3.434
			c-0.032,0.014-7.181,3.467-16.199,26.482c-8.327,21.249-5.484,28.755-5.453,28.831L27.97,97.371z"/>
	</g>
	<g>
		<path fill="#001FD4" d="M128.947,139.287l-1.34-3.416c0.071-0.031,7.18-3.403,15.508-24.649
			c9.025-23.016,6.216-30.612,6.179-30.687l3.269-1.501c0.386,0.858,3.501,9.035-6.122,33.57
			C137.533,135.327,129.799,138.953,128.947,139.287z"/>
	</g>
	<g>
		<g>
			<path fill="#001FD4" d="M144.092,76.087c-1.036,4.104,2.247,6.636,3.441,8.117c1.68,1.771-3.474,3.66-4.809-4.658
				c0.153-3.5-2.51,1.414,2.488,8.612c0.705,1.017,1.132,3.462-0.487,4.309c-1.83,0.354-2.508-1.864-2.824-3.132
				c-0.571-2.401-0.414-4.524-0.899-7.164c0.045-4.875-1.535,2.25-1.532,6.86c-0.01,3.347,0.539,6.646,0.473,9.996
				c-0.024,1.067-0.352,3.033-1.934,3.313c-1.825,0.269-2.636-1.363-2.769-2.336c-0.308-2.187-0.099-4.603,0.352-6.847
				c0.618-3.04,1.655-5.998,2.838-10.151c-6.509,5.749-15.385,20.107-9.4,21.268c1.624-0.036,0.81-2.278,3.43-3.086
				c1.938-0.155,2.857,3.418,1.737,5.61c-4.882,9.582-12.918,0.588-12.52-2.146c-4.362,10.221,1.875,8.113,3.713,10.167
				c2.07,3.264-1.946,8.22-6.05,6.387c-3.152-1.403-4.178-4.417-4.111-6.467c0.164-4.876,2.412-9.602,5.195-14.107
				c-2.835,3.297-6.029,9.05-8.593,12.597c-0.855,1.187-2.249,3.091-3.96,2.365c-2.086-1.552-0.229-4.166,0.661-5.25
				c2.431-2.952,16.383-16.18,20.014-19.326c-22.664,15.414-33.512-7.096-27.959-18.328c3.331-6.74,11.93-7.649,16.205-2.175
				c1.94,2.477,2.083,5.272,0.373,8.016c-1.677,2.687-3.27,1.081-5.502,0.378c-4.139-1.319-6.211,9.593,1.32,12.206
				c10.622,3.684,17.756-7.397,19.765-9.433c-3.605,1.716-6.947,2.394-8.828,1.777c-1.583-0.514-3.647-1.473-3.093-3.423
				c0.495-2.157,3.677-0.834,5.369-0.413c5.851,1.464,10.395-1.905,10.602-2.482c-8.526,0.4-15.719-2.262-19.566-8.994
				c-0.67-1.152-1.326-2.977-0.887-4.293c0.852-2.175,3.411-0.786,4.263-0.03c1.501,1.333,2.296,3.61,3.415,5.441
				c4.128,6.778,10.908,7.067,15.116,5.12c-3.51-0.555-7.044-2.265-8.953-4.439c-0.756-0.856-1.586-2.855-0.697-4.247
				c0.881-1.155,2.795,0.398,3.451,1.418c5.334,8.318,9.713,4.174,9.713,4.174l3.536,4.041
				C146.188,75.327,145.094,73.919,144.092,76.087z M38.046,99.918c9.155-2.965,6.88,2.218,8.413,7.186
				c1.904,6.161,4.067,5.863,10.082,3.207c-4.894-0.617-8.725-3.682-6.42-6.653c3.353-1.371-1.516,4.712,10.676,5.482
				c3.949,0-2.538-2.951-3.864-4.145c-12.427-11.122-5.234-20.978-2.272-18.765c1.238,0.923,0.381,3.779,0.241,5.446
				c-0.659,7.686,5.347,14.503,11.234,14.965c2.066,0.027,2.081-0.764-0.007-1.742c-8.205-3.81-10.042-11.367-8.235-19.941
				c1.242-5.911,5.114-10.505,11.163-9.808c8.427,0.967,12.394,9.208,8.005,16.734c-1.925,3.305-4.871,4.7-7.986,3.751
				c-3.164-0.963,0.061-4.734-1.694-6.888c-4.089-5.016-10.723,11.326,10.509,16.364c4.441,1.052,9.102,1.003,13.94,1.545
				c-26.321,9.052-20.357,19.073-23.027,20.595c-6.34,3.625-9.673-7.334-2.549-12.094c2.717-1.818,5.906-2.557,8.876-3.8
				c2.712-1.291,2.317-1.539-0.165-1.157c-5.527,1.302-11.059,2.563-16.581,3.933c-4.174,1.024-8.153,6.356-5.58,9.857l-1.305,3.041
				L38.046,99.918z"/>
		</g>
		<g>
			<path fill="#001FD4" d="M108.046,106.636c-4.137,2.854-13.319,10.058-14.617,14.703c-1.035,3.686,4.808,7.834,8.305,0.535
				c3.129-6.544,9.349-0.019,6.587,5.697c-7.668,15.84-20.822,5.323-20.224-1.802c0.885-10.402,14.75-16.757,19.42-20.062
				C108.757,105.115,109.846,105.115,108.046,106.636z"/>
		</g>
		<g>
			<path fill="#001FD4" d="M106.769,97.711c-29.084,1.404-22.161-22.947-17.596-27.202c1.154-1.068,2.871-2.089,4.331-1.973
				c4.031,0.322,1.353,7.958,0.815,9.478C89.93,90.563,104.433,96.895,106.769,97.711z"/>
		</g>
		<g>
			<path fill="#001FD4" d="M80.715,133.381c-2.796,1.839-6.25,0.276-7.598-3.175c-1.212-3.098,1.26-8.488,5.071-11.337
				c6.502-4.843,24.954-13.826,28.459-14.422c-5.621,3.073-16.631,11.418-18.534,12.846
				C75.078,127.077,84.173,129.373,80.715,133.381z"/>
		</g>
		<g>
			<path fill="#001FD4" d="M104.174,100.945c-9.605,5.178-29.762,5.941-25.19-7.937c1.195-3.623,4.816-3.829,5.456-0.655
				C86.319,101.732,99.339,101.155,104.174,100.945z"/>
		</g>
	</g>
	<g>
		<path d="M134.517,140.157l-6.592-0.758c-2.151,0.551-9.9,2.408-20.064,3.422c-11.47,1.144-27.984,1.326-41.536-4.297
			c-13.925-5.785-20.454-15.518-23.481-22.669c-2.459-5.813-3.061-10.837-3.209-13.105l-13.461-5.586
			c-0.747,0.132-2.198,0.369-3.805,0.531c-2.982,0.296-5.08,0.19-6.415-0.327c-1.628-0.635-2.817-1.811-3.536-3.485
			c-1.419-3.327-2.237-10.474,7.04-34.001c5.603-14.219,16.114-38.178,23.538-38.914c0.523-0.053,1.03,0.009,1.497,0.173
			c2.482,0.9,2.58,3.663,2.671,6.333c0.098,2.922,0.21,6.212,2.765,8.418l13.729,5.699c2.419-2.096,9.595-7.462,20.621-8.558
			c7.104-0.711,14.501,0.506,21.982,3.606c23.982,9.962,42.868,37.438,45.61,41.572l6.614,2.753l0.296,0.656
			c0.387,0.853,3.492,9.037-6.12,33.56c-8.91,22.731-16.229,24.572-17.08,24.906L134.517,140.157z M128.16,135.534l6.227,2.59
			c1.831-1.245,7.959-6.493,14.953-24.324c7.581-19.347,6.803-27.796,6.343-30.039l-6.178-2.572l-0.306-0.475
			c-0.199-0.305-19.912-30.546-44.271-40.665c-6.939-2.881-13.763-4.01-20.291-3.359c-12.147,1.211-19.275,8.274-19.344,8.341
			l-0.835,0.848l-16.553-6.944c-4.048-3.255-4.217-8.125-4.324-11.344c-0.037-1.075-0.094-2.692-0.357-3.044
			c0.065,0.087-6.412,1.139-20.442,36.722c-8.085,20.508-8.311,28.258-7.077,31.15c0.418,0.977,1,1.313,1.513,1.51
			c0.357,0.141,1.549,0.429,4.795,0.108c2.117-0.21,3.989-0.581,4.009-0.582l0.516-0.1l16.649,6.906l-0.01,1.252
			c-0.009,0.952,0.124,23.487,24.483,33.603c12.878,5.342,28.776,5.149,39.846,4.049c11.472-1.144,19.991-3.451,20.074-3.472
			L128.16,135.534z"/>
	</g>
</g>
<path d="M191.532,13.632c-0.725-0.183-2.452-0.291-8.809-0.291c-2.198,0-4.709,0.01-7.377,0.028c-3.02,0.011-6.25,0.03-9.475,0.03
	c-5.525,0-13.265-0.045-18.498-0.393c-7.758-5.832-16.961-9.106-27.168-9.414c-21.763-0.666-40.881,8.633-51.21,24.858
	c-3.972,3.917-11.601,8.257-14.167,8.832c-1.188,0.264-2.085,1.06-2.398,2.127c-0.319,1.083,0.021,2.267,0.914,3.168
	c0.814,0.819,2.509,1.848,5.904,1.848c1.825,0,4.147-0.302,7.086-1.09c1.099,2.498,3,4.089,4.546,4.776
	c3.694,1.64,15.705-3.118,20.444-9.686c3.664,1.94,7.471,2.685,11.333,2.678c-2.673,1.217-5.116,2.718-7.157,4.51
	c-4.903,4.314-5.09,7.841-4.391,10.042c0.996,3.125,4.489,5.441,8.891,5.902c2.871,0.302,6.557-0.517,10.828-1.464
	c5.627-1.247,12.016-2.66,17.363-1.556c7.955,1.646,13.491,6.065,21.517,13.254l4.169,3.748c0.276,0.231,0.609,0.355,0.952,0.355
	c0.407,0,0.814-0.169,1.112-0.493c0.556-0.619,0.505-1.564-0.104-2.121l-1.189-1.073c-9.728-8.796-16.158-14.607-25.847-16.61
	c-5.983-1.239-12.701,0.253-18.624,1.568c-3.845,0.853-7.475,1.656-9.862,1.408c-3.17-0.337-5.723-1.876-6.346-3.836
	c-0.611-1.902,0.638-4.348,3.518-6.877c8.383-7.374,23.959-9.597,35.456-5.062c0.772,0.308,1.638-0.071,1.948-0.842
	c0.304-0.771-0.077-1.646-0.847-1.948c-4.671-1.843-9.976-2.646-15.264-2.508c0.21-0.358,0.276-0.792,0.144-1.216
	c-0.253-0.793-1.094-1.225-1.887-0.975c-8,2.559-17.22,4.863-25.428-0.184c-0.348-0.215-0.772-0.272-1.167-0.169
	c-0.396,0.103-0.732,0.367-0.933,0.725c-3.496,6.35-15.524,10.521-17.409,9.679c-1.118-0.496-2.657-1.855-3.334-4.066
	c-0.919-3.038,0-6.872,2.657-11.087C81.15,14.794,99.352,5.962,120.115,6.589c8.357,0.255,16.004,2.643,22.666,6.905
	c-0.432,0.286-0.747,0.672-0.929,1.167c-0.22,0.617-0.896,2.483,4.016,6.575l0.363,0.307c4.444,3.786,8.477,6.367,12.058,8.11
	c2.388,3.873,4.453,8.187,6.126,12.924c7.64,21.578,9.71,72.4-13.771,88.557c-12.397,8.535-24.048,9.981-30.651,9.965
	c0.55-1.3,0.924-2.543,1.111-3.588c1.95-6.189,2.554-11.532-0.018-20.341c-0.113-0.4-0.267-0.868-0.456-1.364
	c4.901-9.738,13.557-12.009,18.299-12.488c6.519-0.66,13.122,1.294,15.71,4.645c0.506,0.658,1.453,0.775,2.103,0.267
	c0.66-0.499,0.777-1.446,0.269-2.102c-0.931-1.2-2.229-2.249-3.773-3.125l-2.757-1.277c-3.456-1.277-7.647-1.822-11.85-1.397
	c-8.304,0.842-15.279,5.2-19.527,12.072c-3.12-6.096-9.16-14.107-15.81-14.107c-1.618,0-3.16,0.479-4.58,1.425
	c-7.399,4.929-5.298,13.693-3.45,21.428c0.495,2.073,0.97,4.033,1.249,5.858c0.341,2.219,0.248,4.919,0.166,7.532
	c-0.178,5.174-0.353,10.526,2.701,13.677c1.591,1.64,3.869,2.477,6.777,2.477c6.007,0,9.897-3.13,12.226-6.631
	c0.533,0.023,1.094,0.033,1.71,0.033c3.868,0,9.321-0.484,15.604-2.398c-9.387,14.574-27.029,25.419-42.443,25.716
	c-5.53,0.115-13.019-1.227-17.145-8.159c-5.006-8.413-13.003-11.441-18.299-10.068c-4.177,1.072-6.662,4.521-6.821,9.457
	c-0.131,4.11,2.954,9.05,8.477,13.56c7.26,5.925,18.696,10.921,30.366,10.921c2.894,0,5.81-0.308,8.671-0.985
	c25.447-6.024,48.174-26.523,54.294-48.866c13.763-9.828,18.145-29.358,19.382-44.098c1.579-18.795-1.336-37.451-4.929-47.602
	c-1.27-3.586-2.767-6.931-4.435-10.051c3.345,1.116,6.161,1.479,8.372,1.479l0,0c1.993,0,3.918-0.274,5.747-0.819
	c11.702-3.511,16.596-12.159,16.514-15.796C193.416,14.954,192.696,13.926,191.532,13.632z M65.527,40.45
	c-6.708,1.787-9.19,0.632-9.796,0.226c-0.335-0.226-0.421-0.393-0.432-0.393c0,0,0.042-0.042,0.182-0.077
	c2.25-0.498,6.671-2.833,10.596-5.56C65.402,36.952,65.323,38.892,65.527,40.45z M117.255,136.436
	c-0.03,0.082-0.051,0.169-0.062,0.259c-0.077,0.409-1.886,10.002-11.031,10.002c-1.81,0-3.085-0.411-3.906-1.254
	c-1.871-1.937-1.722-6.426-1.58-10.767c0.096-2.795,0.194-5.684-0.207-8.274c-0.302-1.986-0.814-4.123-1.31-6.18
	c-1.991-8.329-2.948-14.023,1.778-17.171c0.758-0.506,1.532-0.753,2.36-0.753c5.396,0,12.46,10.627,13.945,15.976
	C119.56,126.224,119.036,130.788,117.255,136.436z M97.811,179.223c-13.396,3.172-27.959-2.407-36.443-9.339
	c-4.721-3.855-7.483-8.019-7.378-11.144c0.114-3.56,1.738-5.923,4.571-6.652c4.226-1.084,10.724,1.555,14.977,8.701
	c3.791,6.372,10.769,9.766,19.775,9.618c17.44-0.33,37.541-13.33,46.791-30.247c2.821-1.116,5.761-2.544,8.758-4.337
	C141.776,155.849,120.973,173.742,97.811,179.223z M189.653,19.068c-1.764,3.511-6.262,8.049-13.584,10.245
	c-1.541,0.461-3.179,0.695-4.882,0.695l0,0c-4.741,0-12.585-1.865-23.012-10.747l-0.384-0.325c-1.53-1.275-2.494-2.399-2.884-3.036
	c0.262-0.023,0.678-0.023,1.139,0.016c5.305,0.43,13.859,0.48,19.83,0.48c3.232,0,6.465-0.016,9.492-0.026
	c2.662-0.019,5.162-0.03,7.359-0.03c4.138,0,6.724,0.049,7.726,0.148C190.451,16.897,190.313,17.758,189.653,19.068z"/>
<path id="Fill-13_6_" sketch:type="MSShapeGroup" fill="#FFD200" d="M164.416,42.578c-1.673-4.735-3.738-9.052-6.126-12.924
	c-3.581-1.745-7.614-4.325-12.058-8.11l-0.363-0.307c-4.912-4.093-4.236-5.958-4.016-6.575c0.182-0.494,0.494-0.88,0.929-1.167
	c-6.662-4.264-14.309-6.652-22.666-6.905C99.352,5.962,81.15,14.794,71.424,30.214c-2.657,4.215-3.575,8.049-2.657,11.087
	c0.678,2.211,2.217,3.57,3.334,4.066c1.887,0.842,13.913-3.329,17.409-9.679c0.201-0.358,0.538-0.624,0.933-0.725
	c0.396-0.104,0.819-0.045,1.167,0.169c8.208,5.045,17.428,2.741,25.428,0.184c0.792-0.25,1.633,0.182,1.887,0.975
	c0.132,0.423,0.066,0.856-0.144,1.216c5.288-0.138,10.593,0.666,15.264,2.508c0.77,0.302,1.151,1.177,0.847,1.948
	c-0.31,0.771-1.176,1.149-1.948,0.842c-11.499-4.535-27.075-2.311-35.456,5.062c-2.879,2.529-4.129,4.973-3.518,6.877
	c0.624,1.96,3.174,3.499,6.346,3.836c2.388,0.248,6.016-0.557,9.862-1.408c5.923-1.316,12.641-2.807,18.624-1.569
	c9.689,2.003,16.121,7.813,25.847,16.61l1.189,1.073c0.609,0.557,0.658,1.503,0.104,2.121c-0.298,0.32-0.707,0.489-1.112,0.489
	c-0.341,0-0.676-0.124-0.952-0.355c3.913,1.768,10.089,1.176,10.089,5.419c0,5.083,0.308,14.655-4.388,24.968
	c0,0-1.394,1.158-2.404,0.46c0.507,0.655,0.23,1.343-0.43,1.843c-0.648,0.506-1.597,0.391-2.103-0.267
	c-2.589-3.351-9.193-5.305-15.71-4.645c-4.743,0.48-13.398,2.749-18.299,12.488c0.187,0.494,0.34,0.964,0.456,1.364
	c2.571,8.809,1.967,14.152,0.019,20.341c-0.188,1.044-0.562,2.288-1.113,3.588c6.601,0.016,18.256-1.431,30.651-9.965
	C174.126,114.978,172.058,64.158,164.416,42.578"/>
<path id="Fill-15_6_" sketch:type="MSShapeGroup" d="M88.16,27.75c-2.388,1.789-1.666,4,0.998,4.33
	c2.669,0.337,2.875,0.512,5.335-1.329c2.669-2.004,3.001-5.331,0-5.003C91.496,26.083,89.491,26.749,88.16,27.75"/>
<path id="Fill-16_6_" sketch:type="MSShapeGroup" d="M81.156,29.081c0,1.656-1.341,2.999-2.998,2.999
	c-1.656,0-3.004-1.343-3.004-2.999c0-1.656,1.349-2.998,3.004-2.998C79.814,26.083,81.156,27.425,81.156,29.081"/>
<path id="Fill-17_6_" sketch:type="MSShapeGroup" d="M115.829,20.752c0,1.658-1.343,2.999-3.006,2.999
	c-1.656,0-2.998-1.341-2.998-2.999c0-1.656,1.341-3,2.998-3C114.486,17.753,115.829,19.096,115.829,20.752"/>
<path id="Fill-6_6_" sketch:type="MSShapeGroup" fill="#FFD200" d="M117.766,120.226c-0.02-0.066-0.03-0.128-0.045-0.187
	c-0.142-0.571-0.302-1.16-0.479-1.766c-1.485-5.347-8.549-15.978-13.945-15.978c-0.828,0-1.604,0.248-2.36,0.754
	c-4.729,3.148-3.77,8.841-1.778,17.171c0.496,2.058,1.008,4.194,1.31,6.18c0.402,2.59,0.302,5.478,0.207,8.274
	c-0.142,4.341-0.29,8.83,1.58,10.767c0.821,0.844,2.096,1.254,3.906,1.254c0.522,0,1.013-0.037,1.492-0.1
	c0.142-0.016,0.28-0.044,0.418-0.066c0.335-0.054,0.653-0.121,0.962-0.197c0.136-0.037,0.274-0.077,0.407-0.114
	c0.325-0.101,0.632-0.209,0.924-0.337c0.091-0.037,0.184-0.066,0.266-0.105c0.379-0.176,0.743-0.369,1.081-0.578
	c0.035-0.016,0.066-0.042,0.101-0.066c0.297-0.19,0.583-0.396,0.853-0.609c0.077-0.062,0.154-0.128,0.23-0.194
	c0.22-0.185,0.43-0.379,0.634-0.575c0.066-0.066,0.133-0.132,0.197-0.204c0.227-0.236,0.435-0.479,0.634-0.72
	c0.028-0.033,0.049-0.06,0.072-0.089c0.226-0.28,0.423-0.559,0.617-0.847c0.044-0.072,0.082-0.138,0.126-0.203
	c0.132-0.21,0.258-0.425,0.38-0.632c0.054-0.1,0.112-0.198,0.165-0.302c0.087-0.173,0.178-0.341,0.26-0.517
	c0.047-0.106,0.104-0.215,0.154-0.321c0.066-0.149,0.125-0.292,0.185-0.434c0.128-0.304,0.237-0.594,0.332-0.857
	c0.005-0.016,0.018-0.033,0.018-0.044c0.066-0.19,0.126-0.374,0.182-0.545c0.226-0.737,0.332-1.254,0.346-1.341
	c0.01-0.089,0.033-0.177,0.061-0.259c1.495-4.742,2.101-8.734,0.88-14.608C118.025,121.31,117.901,120.769,117.766,120.226"/>
<path fill="#FF8800" d="M65.527,40.45c-6.708,1.787-9.19,0.632-9.796,0.226c-0.335-0.226-0.421-0.393-0.432-0.393
	c0,0,0.042-0.042,0.182-0.077c2.25-0.498,6.671-2.833,10.596-5.56C65.402,36.952,65.323,38.892,65.527,40.45z"/>
<path id="Fill-8_5_" sketch:type="MSShapeGroup" fill="#FFD200" d="M36.043,104.038c-1.513,1.86-2.019,4.474-1.42,7.368
	c1.53,7.382,14.657,21.704,23.548,23.833c0.681,0.166,1.298,0.248,1.832,0.248c1.384,0,1.901-0.545,2.173-0.952
	c1.081-1.656,0.468-5.265-0.399-7.23c-2.459-5.623-10.259-20.367-14.205-23.4c-1.986-1.526-4.121-2.337-6.184-2.337
	C39.24,101.57,37.334,102.45,36.043,104.038"/>
<path id="Fill-18_5_" sketch:type="MSShapeGroup" d="M60.004,138.485L60.004,138.485c-0.772,0-1.625-0.11-2.531-0.323
	c-10.146-2.439-24.034-17.662-25.788-26.146c-0.786-3.796-0.066-7.3,2.03-9.871c1.85-2.272,4.65-3.577,7.675-3.577
	c2.727,0,5.497,1.023,8.014,2.96c4.938,3.796,13.315,20.446,15.125,24.57c0.753,1.722,2.247,6.879,0.154,10.081
	C63.997,137.231,62.622,138.485,60.004,138.485L60.004,138.485z M41.39,101.57c-2.15,0-4.056,0.88-5.347,2.47
	c-1.513,1.86-2.019,4.473-1.42,7.368c1.53,7.382,14.657,21.704,23.548,23.833c0.681,0.166,1.298,0.248,1.832,0.248
	c1.384,0,1.901-0.545,2.173-0.952c1.081-1.656,0.468-5.265-0.399-7.23c-2.459-5.623-10.259-20.368-14.205-23.4
	C45.588,102.379,43.453,101.57,41.39,101.57L41.39,101.57z"/>
</svg>
